<svg width="14" height="16" viewBox="0 0 14 16" fill="none" xmlns="http://www.w3.org/2000/svg">
<path fill-rule="evenodd" clip-rule="evenodd" d="M1.5 3.5C1.5 3.36696 1.55813 3.18206 1.78185 2.94934C2.00913 2.7129 2.37394 2.46577 2.88264 2.24194C3.89793 1.79522 5.35303 1.5 7 1.5C8.64697 1.5 10.1021 1.79522 11.1174 2.24194C11.6261 2.46577 11.9909 2.7129 12.2182 2.94934C12.4419 3.18206 12.5 3.36696 12.5 3.5C12.5 3.63304 12.4419 3.81794 12.2182 4.05066C11.9909 4.2871 11.6261 4.53423 11.1174 4.75806C10.1021 5.20478 8.64697 5.5 7 5.5C5.35303 5.5 3.89793 5.20478 2.88264 4.75806C2.37394 4.53423 2.00913 4.2871 1.78185 4.05066C1.55813 3.81794 1.5 3.63304 1.5 3.5ZM0 3.5C0 2.87365 0.29164 2.3351 0.70046 1.90982C1.10572 1.48824 1.6562 1.1428 2.27853 0.86897C3.52529 0.320393 5.19519 0 7 0C8.80481 0 10.4747 0.320393 11.7215 0.86897C12.3438 1.1428 12.8943 1.48824 13.2995 1.90982C13.7084 2.3351 14 2.87365 14 3.5V12.5C14 13.1264 13.7084 13.6649 13.2995 14.0902C12.8943 14.5118 12.3438 14.8572 11.7215 15.131C10.4747 15.6796 8.80481 16 7 16C5.19519 16 3.52529 15.6796 2.27853 15.131C1.6562 14.8572 1.10572 14.5118 0.70046 14.0902C0.29164 13.6649 0 13.1264 0 12.5V3.5ZM1.5 8V5.72448C1.74115 5.87432 2.00279 6.0097 2.27853 6.13103C3.52529 6.67961 5.19519 7 7 7C8.80481 7 10.4747 6.67961 11.7215 6.13103C11.9972 6.0097 12.2589 5.87432 12.5 5.72448V8C12.5 8.13304 12.4419 8.31794 12.2182 8.55066C11.9909 8.7871 11.6261 9.03423 11.1174 9.25806C10.1021 9.70478 8.64697 10 7 10C5.35303 10 3.89793 9.70478 2.88264 9.25806C2.37394 9.03423 2.00913 8.7871 1.78185 8.55066C1.55813 8.31794 1.5 8.13304 1.5 8ZM1.5 10.2245V12.5C1.5 12.633 1.55813 12.8179 1.78185 13.0507C2.00913 13.2871 2.37394 13.5342 2.88264 13.7581C3.89793 14.2048 5.35303 14.5 7 14.5C8.64697 14.5 10.1021 14.2048 11.1174 13.7581C11.6261 13.5342 11.9909 13.2871 12.2182 13.0507C12.4419 12.8179 12.5 12.633 12.5 12.5V10.2245C12.2589 10.3743 11.9972 10.5097 11.7215 10.631C10.4747 11.1796 8.80481 11.5 7 11.5C5.19519 11.5 3.52529 11.1796 2.27853 10.631C2.00279 10.5097 1.74115 10.3743 1.5 10.2245Z" fill="white"/>
</svg>
