<svg width="16" height="16" viewBox="0 0 16 16" fill="none" xmlns="http://www.w3.org/2000/svg">
<path fill-rule="evenodd" clip-rule="evenodd" d="M3.33333 1.66675C3.14924 1.66675 3 1.81599 3 2.00008V14.0001C3 14.1842 3.14924 14.3334 3.33333 14.3334H12.6667C12.8508 14.3334 13 14.1842 13 14.0001V5.66675H10.3333C9.59695 5.66675 9 5.06979 9 4.33341V1.66675H3.33333ZM10 1.66696V4.33341C10 4.51751 10.1492 4.66675 10.3333 4.66675H12.9998C12.9968 4.58264 12.9621 4.5026 12.9024 4.44289L10.2239 1.76438C10.1641 1.70466 10.0841 1.66995 10 1.66696ZM2 2.00008C2 1.2637 2.59695 0.666748 3.33333 0.666748H9.98816C10.3418 0.666748 10.6809 0.807224 10.931 1.05727L13.6095 3.73578C13.8595 3.98583 14 4.32497 14 4.67859V14.0001C14 14.7365 13.403 15.3334 12.6667 15.3334H3.33333C2.59695 15.3334 2 14.7365 2 14.0001V2.00008Z" fill="white"/>
</svg>
