<svg width="40" height="36" viewBox="0 0 40 36" fill="none" xmlns="http://www.w3.org/2000/svg">
<path fill-rule="evenodd" clip-rule="evenodd" d="M3.5 3C3.22386 3 3 3.22386 3 3.5V32.5C3 32.7761 3.22386 33 3.5 33H36.5C36.7761 33 37 32.7761 37 32.5V9.375C37 9.09886 36.7761 8.875 36.5 8.875H19.5578C18.3997 8.875 17.3165 8.30209 16.6648 7.34477L13.8554 3.2186C13.7623 3.08184 13.6076 3 13.4422 3H3.5ZM0 3.5C0 1.567 1.567 0 3.5 0H13.4422C14.6003 0 15.6835 0.572908 16.3352 1.53023L19.1446 5.6564C19.2377 5.79316 19.3924 5.875 19.5578 5.875H36.5C38.433 5.875 40 7.442 40 9.375V32.5C40 34.433 38.433 36 36.5 36H3.5C1.567 36 0 34.433 0 32.5V3.5Z" fill="#69E5F8"/>
</svg>
