<svg width="16" height="14" viewBox="0 0 16 14" fill="none" xmlns="http://www.w3.org/2000/svg">
<path fill-rule="evenodd" clip-rule="evenodd" d="M1.75 1.5C1.61193 1.5 1.5 1.61193 1.5 1.75V12.25C1.5 12.3881 1.61193 12.5 1.75 12.5H14.25C14.3881 12.5 14.5 12.3881 14.5 12.25V3.75C14.5 3.61193 14.3881 3.5 14.25 3.5H7.5C6.94917 3.5 6.4305 3.24066 6.1 2.8L5.2 1.6C5.15279 1.53705 5.07869 1.5 5 1.5H1.75ZM0 1.75C0 0.783502 0.783501 0 1.75 0H5C5.55083 0 6.0695 0.25934 6.4 0.7L7.3 1.9C7.34721 1.96295 7.42131 2 7.5 2H14.25C15.2165 2 16 2.7835 16 3.75V12.25C16 13.2165 15.2165 14 14.25 14H1.75C0.783502 14 0 13.2165 0 12.25V1.75Z" fill="white"/>
</svg>
