<svg viewBox="0 0 16 14" xmlns="http://www.w3.org/2000/svg">
<path fill-rule="evenodd" clip-rule="evenodd" d="M7.655 13.9159C7.76305 13.9718 7.88153 13.9998 8 13.9998C8.11847 13.9998 8.23695 13.9718 8.34501 13.9159C8.45821 13.8566 8.56999 13.7946 8.6812 13.7317C8.8886 13.6142 9.18229 13.442 9.53358 13.2199C10.2346 12.7767 11.1728 12.13 12.1147 11.3181C13.9554 9.7312 16 7.35031 16 4.5C16 1.83579 13.9142 0 11.75 0C10.2026 0 8.84711 0.80151 8 2.01995C7.15289 0.80151 5.79736 0 4.25 0C2.08579 0 0 1.83579 0 4.5C0 7.35031 2.04459 9.7312 3.8853 11.3181C4.82717 12.13 5.76538 12.7767 6.46642 13.2199C6.81771 13.442 7.1114 13.6142 7.3188 13.7317C7.43001 13.7946 7.54179 13.8566 7.655 13.9159ZM1.5 4.5C1.5 2.66421 2.91421 1.5 4.25 1.5C5.62319 1.5 6.85879 2.48581 7.27886 3.95604C7.37085 4.27802 7.66514 4.5 8 4.5C8.33486 4.5 8.62915 4.27802 8.72114 3.95604C9.14121 2.48581 10.3768 1.5 11.75 1.5C13.0858 1.5 14.5 2.66421 14.5 4.5C14.5 6.64969 12.9196 8.64375 11.1353 10.1819C10.2647 10.9325 9.39039 11.5358 8.73204 11.952C8.43593 12.1392 8.18508 12.2875 8 12.3934C7.81492 12.2875 7.56407 12.1392 7.26796 11.952C6.60962 11.5358 5.73533 10.9325 4.8647 10.1819C3.08041 8.64375 1.5 6.64969 1.5 4.5Z"/>
</svg>
