<svg viewBox="0 0 44 48" xmlns="http://www.w3.org/2000/svg">
<path fill-rule="evenodd" clip-rule="evenodd" d="M36.2802 13.158L21.9973 4.911L7.71727 13.155L22.0003 21.402L36.2802 13.158ZM5.47027 17.052V33.54L19.7503 41.784V25.299L5.47027 17.052ZM24.2503 41.781L38.5242 33.54V17.058L24.2503 25.299V41.781ZM19.7473 1.014C20.4314 0.619048 21.2074 0.411118 21.9973 0.411118C22.7872 0.411118 23.5632 0.619048 24.2473 1.014L40.7772 10.554C41.4618 10.9492 42.03 11.5177 42.4251 12.2024C42.8202 12.887 43.0278 13.6636 43.0272 14.454V33.54C43.0272 34.3299 42.8193 35.106 42.4242 35.79C42.0294 36.474 41.4612 37.0422 40.7772 37.437L24.2473 46.977C23.5632 47.3721 22.7872 47.58 21.9973 47.58C21.2074 47.58 20.4314 47.3721 19.7473 46.977L3.21727 37.437C2.53276 37.0419 1.96444 36.4734 1.56946 35.7885C1.17445 35.1039 0.966779 34.3275 0.967286 33.537V14.457C0.966779 13.6666 1.17445 12.89 1.56946 12.2054C1.96444 11.5207 2.53276 10.9522 3.21727 10.557L19.7503 1.017L19.7473 1.014Z"/>
</svg>
