<svg viewBox="0 0 16 12" xmlns="http://www.w3.org/2000/svg">
<path fill-rule="evenodd" clip-rule="evenodd" d="M5.49993 1.5C4.9695 1.5 4.46079 1.71071 4.08572 2.08578C3.71065 2.46086 3.49993 2.96956 3.49993 3.5C3.49993 4.03043 3.71065 4.53914 4.08572 4.91421C4.46079 5.28928 4.9695 5.5 5.49993 5.5C6.03036 5.5 6.53907 5.28928 6.91415 4.91421C7.28922 4.53914 7.49993 4.03043 7.49993 3.5C7.49993 2.96956 7.28922 2.46086 6.91415 2.08578C6.53907 1.71071 6.03036 1.5 5.49993 1.5ZM1.99993 3.5C1.99986 2.91987 2.14399 2.34882 2.41936 1.83821C2.69473 1.32761 3.0927 0.893464 3.57748 0.574814C4.06226 0.256164 4.61865 0.0630138 5.19659 0.0127438C5.77454 -0.0375362 6.35592 0.056634 6.88844 0.286774C7.42096 0.516924 7.88793 0.875824 8.24733 1.33121C8.60674 1.78659 8.84732 2.32417 8.94743 2.89559C9.04754 3.46702 9.00404 4.05437 8.82084 4.60481C8.63765 5.15525 8.3205 5.65153 7.89793 6.049C8.69479 6.43558 9.38665 7.00867 9.91482 7.71963C10.443 8.4306 10.7919 9.2585 10.9319 10.133C10.9631 10.3295 10.9149 10.5304 10.7979 10.6914C10.681 10.8524 10.5049 10.9603 10.3084 10.9915C10.1119 11.0227 9.91105 10.9745 9.75005 10.8575C9.58905 10.7406 9.48109 10.5645 9.44993 10.368C9.29861 9.4294 8.81798 8.5753 8.09418 7.95882C7.37037 7.34235 6.45068 7.00379 5.49993 7.00379C4.54918 7.00379 3.6295 7.34235 2.90569 7.95882C2.18188 8.5753 1.70125 9.4294 1.54993 10.368C1.53444 10.4653 1.49992 10.5586 1.44837 10.6426C1.39681 10.7266 1.32922 10.7996 1.24946 10.8574C1.16969 10.9153 1.07931 10.9568 0.983481 10.9797C0.887649 11.0027 0.78824 11.0065 0.69093 10.991C0.593621 10.9755 0.500316 10.941 0.416344 10.8894C0.332372 10.8379 0.259377 10.7703 0.201526 10.6905C0.143675 10.6108 0.102101 10.5204 0.079179 10.4245C0.0562567 10.3287 0.0524344 10.2293 0.0679304 10.132C0.208265 9.2578 0.557305 8.4304 1.08546 7.71976C1.61362 7.00917 2.30532 6.4364 3.10193 6.05C2.75346 5.72304 2.47584 5.328 2.28629 4.88937C2.09673 4.45073 1.99926 3.97784 1.99993 3.5ZM10.9999 2C10.801 2 10.6102 2.07901 10.4696 2.21967C10.3289 2.36032 10.2499 2.55108 10.2499 2.75C10.2499 2.94891 10.3289 3.13967 10.4696 3.28033C10.6102 3.42098 10.801 3.5 10.9999 3.5C11.3382 3.50002 11.6666 3.61443 11.9318 3.82465C12.1969 4.03487 12.3832 4.32854 12.4603 4.65798C12.5374 4.98742 12.5009 5.33327 12.3567 5.63934C12.2125 5.94542 11.9691 6.19375 11.6659 6.344C11.5409 6.40618 11.4357 6.50203 11.3622 6.62075C11.2887 6.73948 11.2498 6.87636 11.2499 7.016V7.368C11.2497 7.53646 11.3062 7.70009 11.4103 7.83252C11.5144 7.96495 11.6601 8.0585 11.8239 8.098C13.0239 8.387 13.9859 9.298 14.3459 10.47C14.3744 10.5645 14.4214 10.6525 14.484 10.7289C14.5467 10.8052 14.6238 10.8685 14.711 10.915C14.7981 10.9614 14.8936 10.9902 14.9919 10.9997C15.0902 11.0092 15.1894 10.9991 15.2839 10.9702C15.3783 10.9412 15.4661 10.8939 15.5421 10.8309C15.6182 10.7679 15.6811 10.6905 15.7272 10.6031C15.7733 10.5158 15.8017 10.4202 15.8107 10.3218C15.8198 10.2235 15.8093 10.1243 15.7799 10.03C15.5797 9.3806 15.2495 8.7787 14.8094 8.261C14.3693 7.74317 13.8285 7.32028 13.2199 7.018C13.6108 6.58794 13.8685 6.05357 13.9614 5.47985C14.0544 4.90613 13.9787 4.31776 13.7436 3.78625C13.5084 3.25474 13.1239 2.80298 12.6369 2.48587C12.1498 2.16876 11.5811 1.99996 10.9999 2Z"/>
</svg>
