<svg width="16" height="16" viewBox="0 0 16 16" fill="none" xmlns="http://www.w3.org/2000/svg">
<path fill-rule="evenodd" clip-rule="evenodd" d="M7.9999 0C8.45697 0 8.82749 0.370523 8.82749 0.827586V7.17241H15.1724C15.6295 7.17241 16 7.54294 16 8C16 8.45706 15.6295 8.82759 15.1724 8.82759H8.82749V15.1724C8.82749 15.6295 8.45697 16 7.9999 16C7.54284 16 7.17232 15.6295 7.17232 15.1724V8.82759H0.827586C0.370523 8.82759 0 8.45706 0 8C0 7.54294 0.370523 7.17241 0.827586 7.17241H7.17232V0.827586C7.17232 0.370523 7.54284 0 7.9999 0Z" fill="#69E5F8"/>
</svg>
